{
  "accessors": [
    {
      "bufferView": 2,
      "componentType": 5126,
      "count": 4616,
      "max": [
        24.877099990844727,
        12.280400276184082,
        14.14780044555664
      ],
      "min": [
        17.645200729370117,
        -12.280400276184082,
        13.646100044250488
      ],
      "type": "VEC3"
    },
    {
      "bufferView": 2,
      "byteOffset": 55392,
      "componentType": 5126,
      "count": 4616,
      "max": [
        1.0,
        1.0,
        1.0
      ],
      "min": [
        -0.7045539021492004,
        -1.0,
        -0.9999916553497314
      ],
      "type": "VEC3"
    },
    {
      "bufferView": 1,
      "componentType": 5126,
      "count": 4616,
      "max": [
        1.0,
        1.0
      ],
      "min": [
        0.0,
        0.0
      ],
      "type": "VEC2"
    },
    {
      "bufferView": 0,
      "componentType": 5125,
      "count": 24804,
      "type": "SCALAR"
    },
    {
      "bufferView": 2,
      "byteOffset": 110784,
      "componentType": 5126,
      "count": 7374,
      "max": [
        -1.1162999868392944,
        29.691299438476563,
        12.08430004119873
      ],
      "min": [
        -14.397899627685547,
        -29.691299438476563,
        6.093369960784912
      ],
      "type": "VEC3"
    },
    {
      "bufferView": 2,
      "byteOffset": 199272,
      "componentType": 5126,
      "count": 7374,
      "max": [
        0.9942242503166199,
        0.940606415271759,
        0.9998675584793091
      ],
      "min": [
        -0.500123918056488,
        -0.940606415271759,
        -0.9999379515647888
      ],
      "type": "VEC3"
    },
    {
      "bufferView": 1,
      "byteOffset": 36928,
      "componentType": 5126,
      "count": 7374,
      "max": [
        1.0,
        1.0
      ],
      "min": [
        0.0,
        0.0
      ],
      "type": "VEC2"
    },
    {
      "bufferView": 0,
      "byteOffset": 99216,
      "componentType": 5125,
      "count": 42318,
      "type": "SCALAR"
    },
    {
      "bufferView": 2,
      "byteOffset": 287760,
      "componentType": 5126,
      "count": 9090,
      "max": [
        25.665599822998047,
        3.5438199043273926,
        17.272300720214844
      ],
      "min": [
        -23.633399963378906,
        -3.5438199043273926,
        7.6658501625061035
      ],
      "type": "VEC3"
    },
    {
      "bufferView": 2,
      "byteOffset": 396840,
      "componentType": 5126,
      "count": 9090,
      "max": [
        1.0,
        1.0,
        1.0
      ],
      "min": [
        -1.0,
        -1.0,
        -1.0
      ],
      "type": "VEC3"
    },
    {
      "bufferView": 1,
      "byteOffset": 95920,
      "componentType": 5126,
      "count": 9090,
      "max": [
        1.0,
        1.0
      ],
      "min": [
        0.0,
        0.0
      ],
      "type": "VEC2"
    },
    {
      "bufferView": 0,
      "byteOffset": 268488,
      "componentType": 5125,
      "count": 48909,
      "type": "SCALAR"
    },
    {
      "bufferView": 2,
      "byteOffset": 505920,
      "componentType": 5126,
      "count": 2068,
      "max": [
        23.36870002746582,
        0.42054200172424316,
        22.640300750732422
      ],
      "min": [
        13.660499572753906,
        -0.42054200172424316,
        14.258999824523926
      ],
      "type": "VEC3"
    },
    {
      "bufferView": 2,
      "byteOffset": 530736,
      "componentType": 5126,
      "count": 2068,
      "max": [
        0.8451294302940369,
        0.9999639987945557,
        1.0
      ],
      "min": [
        -0.9522671103477478,
        -0.9999952912330627,
        -0.9999056458473206
      ],
      "type": "VEC3"
    },
    {
      "bufferView": 1,
      "byteOffset": 168640,
      "componentType": 5126,
      "count": 2068,
      "max": [
        1.0,
        1.0
      ],
      "min": [
        0.0,
        0.0
      ],
      "type": "VEC2"
    },
    {
      "bufferView": 0,
      "byteOffset": 464124,
      "componentType": 5125,
      "count": 11184,
      "type": "SCALAR"
    },
    {
      "bufferView": 2,
      "byteOffset": 555552,
      "componentType": 5126,
      "count": 28140,
      "max": [
        24.702800750732422,
        10.152700424194336,
        14.166600227355957
      ],
      "min": [
        18.65060043334961,
        -10.152700424194336,
        13.627400398254395
      ],
      "type": "VEC3"
    },
    {
      "bufferView": 2,
      "byteOffset": 893232,
      "componentType": 5126,
      "count": 28140,
      "max": [
        1.0,
        1.0,
        1.0
      ],
      "min": [
        -1.0,
        -1.0,
        -1.0
      ],
      "type": "VEC3"
    },
    {
      "bufferView": 1,
      "byteOffset": 185184,
      "componentType": 5126,
      "count": 28140,
      "max": [
        1.0,
        1.0
      ],
      "min": [
        0.0,
        0.0
      ],
      "type": "VEC2"
    },
    {
      "bufferView": 0,
      "byteOffset": 508860,
      "componentType": 5125,
      "count": 144984,
      "type": "SCALAR"
    },
    {
      "bufferView": 2,
      "byteOffset": 1230912,
      "componentType": 5126,
      "count": 33306,
      "max": [
        22.3518009185791,
        0.4415319859981537,
        22.2322998046875
      ],
      "min": [
        15.945899963378906,
        -0.4415319859981537,
        14.33430004119873
      ],
      "type": "VEC3"
    },
    {
      "bufferView": 2,
      "byteOffset": 1630584,
      "componentType": 5126,
      "count": 33306,
      "max": [
        1.0,
        1.0,
        1.0
      ],
      "min": [
        -0.9999374747276306,
        -1.0,
        -1.0
      ],
      "type": "VEC3"
    },
    {
      "bufferView": 1,
      "byteOffset": 410304,
      "componentType": 5126,
      "count": 33306,
      "max": [
        1.0,
        1.0
      ],
      "min": [
        0.0,
        0.0
      ],
      "type": "VEC2"
    },
    {
      "bufferView": 0,
      "byteOffset": 1088796,
      "componentType": 5125,
      "count": 176856,
      "type": "SCALAR"
    },
    {
      "bufferView": 2,
      "byteOffset": 2030256,
      "componentType": 5126,
      "count": 65532,
      "max": [
        -1.6102800369262695,
        29.711599349975586,
        11.993499755859375
      ],
      "min": [
        -14.280799865722656,
        -29.711599349975586,
        6.088069915771484
      ],
      "type": "VEC3"
    },
    {
      "bufferView": 2,
      "byteOffset": 2816640,
      "componentType": 5126,
      "count": 65532,
      "max": [
        1.0,
        1.0,
        0.9999891519546509
      ],
      "min": [
        -1.0,
        -1.0,
        -0.9999867081642151
      ],
      "type": "VEC3"
    },
    {
      "bufferView": 1,
      "byteOffset": 676752,
      "componentType": 5126,
      "count": 65532,
      "max": [
        1.0,
        1.0
      ],
      "min": [
        0.0,
        0.0
      ],
      "type": "VEC2"
    },
    {
      "bufferView": 0,
      "byteOffset": 1796220,
      "componentType": 5125,
      "count": 333435,
      "type": "SCALAR"
    },
    {
      "bufferView": 2,
      "byteOffset": 3603024,
      "componentType": 5126,
      "count": 65532,
      "max": [
        -1.6102800369262695,
        29.50779914855957,
        11.993499755859375
      ],
      "min": [
        -14.280799865722656,
        -29.50779914855957,
        6.088069915771484
      ],
      "type": "VEC3"
    },
    {
      "bufferView": 2,
      "byteOffset": 4389408,
      "componentType": 5126,
      "count": 65532,
      "max": [
        1.0,
        0.9999634623527527,
        0.9999891519546509
      ],
      "min": [
        -1.0,
        -0.9999558925628662,
        -0.9999898076057434
      ],
      "type": "VEC3"
    },
    {
      "bufferView": 1,
      "byteOffset": 1201008,
      "componentType": 5126,
      "count": 65532,
      "max": [
        1.0,
        1.0
      ],
      "min": [
        0.0,
        0.0
      ],
      "type": "VEC2"
    },
    {
      "bufferView": 0,
      "byteOffset": 3129960,
      "componentType": 5125,
      "count": 366573,
      "type": "SCALAR"
    },
    {
      "bufferView": 2,
      "byteOffset": 5175792,
      "componentType": 5126,
      "count": 3390,
      "max": [
        -2.6333999633789063,
        29.711599349975586,
        11.27929973602295
      ],
      "min": [
        -14.222999572753906,
        -20.8164005279541,
        6.181509971618652
      ],
      "type": "VEC3"
    },
    {
      "bufferView": 2,
      "byteOffset": 5216472,
      "componentType": 5126,
      "count": 3390,
      "max": [
        1.0,
        0.9999304413795471,
        0.9998289346694946
      ],
      "min": [
        -0.9999998807907104,
        -0.999928891658783,
        -0.9998303651809692
      ],
      "type": "VEC3"
    },
    {
      "bufferView": 1,
      "byteOffset": 1725264,
      "componentType": 5126,
      "count": 3390,
      "max": [
        1.0,
        1.0
      ],
      "min": [
        0.0,
        0.0
      ],
      "type": "VEC2"
    },
    {
      "bufferView": 0,
      "byteOffset": 4596252,
      "componentType": 5125,
      "count": 15576,
      "type": "SCALAR"
    },
    {
      "bufferView": 2,
      "byteOffset": 5257152,
      "componentType": 5126,
      "count": 65532,
      "max": [
        22.794300079345703,
        3.5642199516296387,
        17.009599685668945
      ],
      "min": [
        -20.825199127197266,
        -3.5738399028778076,
        7.656799793243408
      ],
      "type": "VEC3"
    },
    {
      "bufferView": 2,
      "byteOffset": 6043536,
      "componentType": 5126,
      "count": 65532,
      "max": [
        1.0,
        1.0,
        1.0
      ],
      "min": [
        -1.0,
        -1.0,
        -1.0
      ],
      "type": "VEC3"
    },
    {
      "bufferView": 1,
      "byteOffset": 1752384,
      "componentType": 5126,
      "count": 65532,
      "max": [
        1.0,
        1.0
      ],
      "min": [
        0.0,
        0.0
      ],
      "type": "VEC2"
    },
    {
      "bufferView": 0,
      "byteOffset": 4658556,
      "componentType": 5125,
      "count": 345831,
      "type": "SCALAR"
    },
    {
      "bufferView": 2,
      "byteOffset": 6829920,
      "componentType": 5126,
      "count": 18051,
      "max": [
        22.78219985961914,
        3.5738399028778076,
        16.585500717163086
      ],
      "min": [
        -20.825199127197266,
        -3.518440008163452,
        7.656799793243408
      ],
      "type": "VEC3"
    },
    {
      "bufferView": 2,
      "byteOffset": 7046532,
      "componentType": 5126,
      "count": 18051,
      "max": [
        1.0,
        0.9999996423721313,
        1.0
      ],
      "min": [
        -1.0,
        -0.9999996423721313,
        -1.0
      ],
      "type": "VEC3"
    },
    {
      "bufferView": 1,
      "byteOffset": 2276640,
      "componentType": 5126,
      "count": 18051,
      "max": [
        1.0,
        1.0
      ],
      "min": [
        0.0,
        0.0
      ],
      "type": "VEC2"
    },
    {
      "bufferView": 0,
      "byteOffset": 6041880,
      "componentType": 5125,
      "count": 98985,
      "type": "SCALAR"
    }
  ],
  "asset": {
    "extras": {
      "author": "Niko-Beleg (https://sketchfab.com/Niko-Beleg)",
      "license": "CC-BY-4.0 (http://creativecommons.org/licenses/by/4.0/)",
      "source": "https://sketchfab.com/3d-models/f4u-corsaire-cb3c3058e63444f4bbd8bdd35b5d57c3",
      "title": "F4U Corsaire"
    },
    "generator": "Sketchfab-12.68.0",
    "version": "2.0"
  },
  "bufferViews": [
    {
      "buffer": 0,
      "byteLength": 6437820,
      "name": "floatBufferViews",
      "target": 34963
    },
    {
      "buffer": 0,
      "byteLength": 2421048,
      "byteOffset": 6437820,
      "byteStride": 8,
      "name": "floatBufferViews",
      "target": 34962
    },
    {
      "buffer": 0,
      "byteLength": 7263144,
      "byteOffset": 8858868,
      "byteStride": 12,
      "name": "floatBufferViews",
      "target": 34962
    }
  ],
  "buffers": [
    {
      "byteLength": 16122012,
      "uri": "scene.bin"
    }
  ],
  "materials": [
    {
      "doubleSided": true,
      "name": "material_0",
      "pbrMetallicRoughness": {
        "baseColorFactor": [
          0.1746474037,
          0.4620769997,
          0.9822505503,
          1.0
        ],
        "roughnessFactor": 0.148
      }
    }
  ],
  "meshes": [
    {
      "name": "Object_0",
      "primitives": [
        {
          "attributes": {
            "NORMAL": 1,
            "POSITION": 0,
            "TEXCOORD_0": 2
          },
          "indices": 3,
          "material": 0,
          "mode": 4
        }
      ]
    },
    {
      "name": "Object_1",
      "primitives": [
        {
          "attributes": {
            "NORMAL": 5,
            "POSITION": 4,
            "TEXCOORD_0": 6
          },
          "indices": 7,
          "material": 0,
          "mode": 4
        }
      ]
    },
    {
      "name": "Object_2",
      "primitives": [
        {
          "attributes": {
            "NORMAL": 9,
            "POSITION": 8,
            "TEXCOORD_0": 10
          },
          "indices": 11,
          "material": 0,
          "mode": 4
        }
      ]
    },
    {
      "name": "Object_3",
      "primitives": [
        {
          "attributes": {
            "NORMAL": 13,
            "POSITION": 12,
            "TEXCOORD_0": 14
          },
          "indices": 15,
          "material": 0,
          "mode": 4
        }
      ]
    },
    {
      "name": "Object_4",
      "primitives": [
        {
          "attributes": {
            "NORMAL": 17,
            "POSITION": 16,
            "TEXCOORD_0": 18
          },
          "indices": 19,
          "material": 0,
          "mode": 4
        }
      ]
    },
    {
      "name": "Object_5",
      "primitives": [
        {
          "attributes": {
            "NORMAL": 21,
            "POSITION": 20,
            "TEXCOORD_0": 22
          },
          "indices": 23,
          "material": 0,
          "mode": 4
        }
      ]
    },
    {
      "name": "Object_6",
      "primitives": [
        {
          "attributes": {
            "NORMAL": 25,
            "POSITION": 24,
            "TEXCOORD_0": 26
          },
          "indices": 27,
          "material": 0,
          "mode": 4
        }
      ]
    },
    {
      "name": "Object_7",
      "primitives": [
        {
          "attributes": {
            "NORMAL": 29,
            "POSITION": 28,
            "TEXCOORD_0": 30
          },
          "indices": 31,
          "material": 0,
          "mode": 4
        }
      ]
    },
    {
      "name": "Object_8",
      "primitives": [
        {
          "attributes": {
            "NORMAL": 33,
            "POSITION": 32,
            "TEXCOORD_0": 34
          },
          "indices": 35,
          "material": 0,
          "mode": 4
        }
      ]
    },
    {
      "name": "Object_9",
      "primitives": [
        {
          "attributes": {
            "NORMAL": 37,
            "POSITION": 36,
            "TEXCOORD_0": 38
          },
          "indices": 39,
          "material": 0,
          "mode": 4
        }
      ]
    },
    {
      "name": "Object_10",
      "primitives": [
        {
          "attributes": {
            "NORMAL": 41,
            "POSITION": 40,
            "TEXCOORD_0": 42
          },
          "indices": 43,
          "material": 0,
          "mode": 4
        }
      ]
    }
  ],
  "nodes": [
    {
      "children": [
        1
      ],
      "matrix": [
        1.0,
        0.0,
        0.0,
        0.0,
        0.0,
        2.220446049250313e-16,
        -1.0,
        0.0,
        0.0,
        1.0,
        2.220446049250313e-16,
        0.0,
        0.0,
        0.0,
        0.0,
        1.0
      ],
      "name": "Sketchfab_model"
    },
    {
      "children": [
        2,
        3,
        4,
        5,
        6,
        7,
        8,
        9,
        10,
        11,
        12
      ],
      "name": "F4U Corsaire assemblage2.obj.cleaner.materialmerger.gles"
    },
    {
      "mesh": 0,
      "name": "Object_2"
    },
    {
      "mesh": 1,
      "name": "Object_3"
    },
    {
      "mesh": 2,
      "name": "Object_4"
    },
    {
      "mesh": 3,
      "name": "Object_5"
    },
    {
      "mesh": 4,
      "name": "Object_6"
    },
    {
      "mesh": 5,
      "name": "Object_7"
    },
    {
      "mesh": 6,
      "name": "Object_8"
    },
    {
      "mesh": 7,
      "name": "Object_9"
    },
    {
      "mesh": 8,
      "name": "Object_10"
    },
    {
      "mesh": 9,
      "name": "Object_11"
    },
    {
      "mesh": 10,
      "name": "Object_12"
    }
  ],
  "scene": 0,
  "scenes": [
    {
      "name": "Sketchfab_Scene",
      "nodes": [
        0
      ]
    }
  ]
}
