{
  "accessors": [
    {
      "bufferView": 2,
      "componentType": 5126,
      "count": 97,
      "max": [
        -7.554365158081055,
        2.597654342651367,
        0.509621262550354
      ],
      "min": [
        -15.200247764587402,
        1.5658130645751953,
        -0.5222203731536865
      ],
      "type": "VEC3"
    },
    {
      "bufferView": 2,
      "byteOffset": 1164,
      "componentType": 5126,
      "count": 97,
      "max": [
        0.0,
        0.999925971031189,
        0.9999259114265442
      ],
      "min": [
        -1.0,
        -0.9999259114265442,
        -0.9999259114265442
      ],
      "type": "VEC3"
    },
    {
      "bufferView": 1,
      "componentType": 5126,
      "count": 97,
      "max": [
        0.6304921507835388,
        0.642240047454834
      ],
      "min": [
        0.4150519371032715,
        0.33201074600219727
      ],
      "type": "VEC2"
    },
    {
      "bufferView": 1,
      "byteOffset": 776,
      "componentType": 5126,
      "count": 97,
      "max": [
        1.0,
        4.8274641036987305
      ],
      "min": [
        0.0,
        0.0
      ],
      "type": "VEC2"
    },
    {
      "bufferView": 0,
      "componentType": 5125,
      "count": 240,
      "type": "SCALAR"
    },
    {
      "bufferView": 2,
      "byteOffset": 2328,
      "componentType": 5126,
      "count": 565,
      "max": [
        3.401827335357666,
        4.770816802978516,
        1.3586064577102661
      ],
      "min": [
        -15.179996490478516,
        0.9454574584960938,
        -1.3586061000823975
      ],
      "type": "VEC3"
    },
    {
      "bufferView": 2,
      "byteOffset": 9108,
      "componentType": 5126,
      "count": 565,
      "max": [
        1.0,
        1.0,
        1.0
      ],
      "min": [
        -1.0,
        -1.0,
        -1.0
      ],
      "type": "VEC3"
    },
    {
      "bufferView": 1,
      "byteOffset": 1552,
      "componentType": 5126,
      "count": 565,
      "max": [
        0.8151435256004333,
        0.9867768883705139
      ],
      "min": [
        0.0,
        0.0
      ],
      "type": "VEC2"
    },
    {
      "bufferView": 1,
      "byteOffset": 6072,
      "componentType": 5126,
      "count": 565,
      "max": [
        0.8281429409980774,
        0.9890507459640503
      ],
      "min": [
        0.0,
        0.0
      ],
      "type": "VEC2"
    },
    {
      "bufferView": 0,
      "byteOffset": 960,
      "componentType": 5125,
      "count": 2136,
      "type": "SCALAR"
    },
    {
      "bufferView": 2,
      "byteOffset": 15888,
      "componentType": 5126,
      "count": 172,
      "max": [
        10.413800239562988,
        11.412631034851074,
        2.0688648223876953
      ],
      "min": [
        4.0077900886535645,
        0.6638875007629395,
        1.1502032279968262
      ],
      "type": "VEC3"
    },
    {
      "bufferView": 2,
      "byteOffset": 17952,
      "componentType": 5126,
      "count": 172,
      "max": [
        0.9963696002960205,
        0.7646750807762146,
        0.999844491481781
      ],
      "min": [
        -0.9578827023506165,
        -0.9576613306999207,
        -0.9686112403869629
      ],
      "type": "VEC3"
    },
    {
      "bufferView": 1,
      "byteOffset": 10592,
      "componentType": 5126,
      "count": 172,
      "max": [
        0.9911400079727173,
        0.6854150891304016
      ],
      "min": [
        0.7589079141616821,
        0.23051191866397858
      ],
      "type": "VEC2"
    },
    {
      "bufferView": 0,
      "byteOffset": 9504,
      "componentType": 5125,
      "count": 735,
      "type": "SCALAR"
    },
    {
      "bufferView": 2,
      "byteOffset": 20016,
      "componentType": 5126,
      "count": 168,
      "max": [
        3.512603282928467,
        2.1924219131469727,
        1.6717286109924316
      ],
      "min": [
        -3.507935047149658,
        1.5964155197143555,
        -1.6717286109924316
      ],
      "type": "VEC3"
    },
    {
      "bufferView": 2,
      "byteOffset": 22032,
      "componentType": 5126,
      "count": 168,
      "max": [
        0.6912204623222351,
        1.0,
        1.0
      ],
      "min": [
        -0.9701035022735596,
        -1.0,
        -1.0
      ],
      "type": "VEC3"
    },
    {
      "bufferView": 1,
      "byteOffset": 11968,
      "componentType": 5126,
      "count": 168,
      "max": [
        0.786605954170227,
        0.05127479508519173
      ],
      "min": [
        0.5599169731140137,
        0.0049095237627625465
      ],
      "type": "VEC2"
    },
    {
      "bufferView": 0,
      "byteOffset": 12444,
      "componentType": 5125,
      "count": 300,
      "type": "SCALAR"
    },
    {
      "bufferView": 2,
      "byteOffset": 24048,
      "componentType": 5126,
      "count": 627,
      "max": [
        4.536186695098877,
        2.2859268188476563,
        1.6280864477157593
      ],
      "min": [
        -13.152292251586914,
        -8.921080589294434,
        -1.4895564317703247
      ],
      "type": "VEC3"
    },
    {
      "bufferView": 2,
      "byteOffset": 31572,
      "componentType": 5126,
      "count": 627,
      "max": [
        0.999541163444519,
        1.0,
        1.0
      ],
      "min": [
        -1.0,
        -1.0,
        -1.0
      ],
      "type": "VEC3"
    },
    {
      "bufferView": 1,
      "byteOffset": 13312,
      "componentType": 5126,
      "count": 627,
      "max": [
        0.989225447177887,
        0.9245440363883972
      ],
      "min": [
        0.007786809466779232,
        0.008899210020899773
      ],
      "type": "VEC2"
    },
    {
      "bufferView": 1,
      "byteOffset": 18328,
      "componentType": 5126,
      "count": 627,
      "max": [
        0.9814386367797852,
        0.9156448245048523
      ],
      "min": [
        0.0,
        0.0
      ],
      "type": "VEC2"
    },
    {
      "bufferView": 0,
      "byteOffset": 13644,
      "componentType": 5125,
      "count": 2622,
      "type": "SCALAR"
    },
    {
      "bufferView": 2,
      "byteOffset": 39096,
      "componentType": 5126,
      "count": 194,
      "max": [
        -7.305979251861572,
        4.199159622192383,
        0.6953508853912354
      ],
      "min": [
        -16.163427352905273,
        2.8084640502929688,
        -0.6953510642051697
      ],
      "type": "VEC3"
    },
    {
      "bufferView": 2,
      "byteOffset": 41424,
      "componentType": 5126,
      "count": 194,
      "max": [
        1.299631069429097e-09,
        1.0,
        1.0
      ],
      "min": [
        -1.0,
        -1.0,
        -1.0
      ],
      "type": "VEC3"
    },
    {
      "bufferView": 1,
      "byteOffset": 23344,
      "componentType": 5126,
      "count": 194,
      "max": [
        0.4727511405944824,
        0.7360950112342834
      ],
      "min": [
        0.41433465480804443,
        0.322529673576355
      ],
      "type": "VEC2"
    },
    {
      "bufferView": 0,
      "byteOffset": 24132,
      "componentType": 5125,
      "count": 720,
      "type": "SCALAR"
    },
    {
      "bufferView": 2,
      "byteOffset": 43752,
      "componentType": 5126,
      "count": 27,
      "max": [
        -4.276501655578613,
        4.671171188354492,
        1.2419555187225342
      ],
      "min": [
        -7.565391540527344,
        4.1539306640625,
        -1.2419555187225342
      ],
      "type": "VEC3"
    },
    {
      "bufferView": 2,
      "byteOffset": 44076,
      "componentType": 5126,
      "count": 27,
      "max": [
        -0.002908616792410612,
        0.999995768070221,
        0.8981295228004456
      ],
      "min": [
        -0.07854896038770676,
        0.43265873193740845,
        -0.8981295228004456
      ],
      "type": "VEC3"
    },
    {
      "bufferView": 1,
      "byteOffset": 24896,
      "componentType": 5126,
      "count": 27,
      "max": [
        0.583770215511322,
        0.9192001819610596
      ],
      "min": [
        0.4696491062641144,
        0.8208709359169006
      ],
      "type": "VEC2"
    },
    {
      "bufferView": 0,
      "byteOffset": 27012,
      "componentType": 5125,
      "count": 96,
      "type": "SCALAR"
    },
    {
      "bufferView": 2,
      "byteOffset": 44400,
      "componentType": 5126,
      "count": 115,
      "max": [
        3.636775493621826,
        4.667197227478027,
        0.3876018524169922
      ],
      "min": [
        1.916062831878662,
        2.9320316314697266,
        -0.3876018524169922
      ],
      "type": "VEC3"
    },
    {
      "bufferView": 2,
      "byteOffset": 45780,
      "componentType": 5126,
      "count": 115,
      "max": [
        1.0,
        1.0,
        1.0
      ],
      "min": [
        -0.9876880645751953,
        -0.9876891374588013,
        -1.0
      ],
      "type": "VEC3"
    },
    {
      "bufferView": 1,
      "byteOffset": 25112,
      "componentType": 5126,
      "count": 115,
      "max": [
        0.9829974174499512,
        0.7863239645957947
      ],
      "min": [
        0.6922788619995117,
        0.6908906102180481
      ],
      "type": "VEC2"
    },
    {
      "bufferView": 0,
      "byteOffset": 27396,
      "componentType": 5125,
      "count": 312,
      "type": "SCALAR"
    },
    {
      "bufferView": 2,
      "byteOffset": 47160,
      "componentType": 5126,
      "count": 28,
      "max": [
        -1.452927589416504,
        1.3470749855041504,
        1.554950475692749
      ],
      "min": [
        -2.9235012531280518,
        0.2757291793823242,
        -1.5549497604370117
      ],
      "type": "VEC3"
    },
    {
      "bufferView": 2,
      "byteOffset": 47496,
      "componentType": 5126,
      "count": 28,
      "max": [
        0.8419389128684998,
        0.999406099319458,
        0.9906896948814392
      ],
      "min": [
        -0.8220541477203369,
        -0.9505493640899658,
        -0.9906896352767944
      ],
      "type": "VEC3"
    },
    {
      "bufferView": 1,
      "byteOffset": 26032,
      "componentType": 5126,
      "count": 28,
      "max": [
        0.37869971990585327,
        0.3101591467857361
      ],
      "min": [
        0.3090754747390747,
        0.23316030204296112
      ],
      "type": "VEC2"
    },
    {
      "bufferView": 0,
      "byteOffset": 28644,
      "componentType": 5125,
      "count": 78,
      "type": "SCALAR"
    },
    {
      "bufferView": 2,
      "byteOffset": 47832,
      "componentType": 5126,
      "count": 20,
      "max": [
        1.672255039215088,
        2.2003092765808105,
        2.1457841396331787
      ],
      "min": [
        -0.6698651909828186,
        1.3196349143981934,
        -2.145784378051758
      ],
      "type": "VEC3"
    },
    {
      "bufferView": 2,
      "byteOffset": 48072,
      "componentType": 5126,
      "count": 20,
      "max": [
        0.9007591009140015,
        0.6258031129837036,
        0.9826957583427429
      ],
      "min": [
        -0.7972802519798279,
        -0.18523381650447845,
        -0.9826955795288086
      ],
      "type": "VEC3"
    },
    {
      "bufferView": 1,
      "byteOffset": 26256,
      "componentType": 5126,
      "count": 20,
      "max": [
        0.311052531003952,
        0.06544460356235504
      ],
      "min": [
        0.20739197731018066,
        0.012552011758089066
      ],
      "type": "VEC2"
    },
    {
      "bufferView": 0,
      "byteOffset": 28956,
      "componentType": 5125,
      "count": 60,
      "type": "SCALAR"
    },
    {
      "bufferView": 2,
      "byteOffset": 48312,
      "componentType": 5126,
      "count": 90,
      "max": [
        -4.08136510848999,
        0.25403642654418945,
        0.26077985763549805
      ],
      "min": [
        -6.063104629516602,
        -1.966291904449463,
        -0.26077938079833984
      ],
      "type": "VEC3"
    },
    {
      "bufferView": 2,
      "byteOffset": 49392,
      "componentType": 5126,
      "count": 90,
      "max": [
        0.9337456822395325,
        0.9978219270706177,
        0.9992614984512329
      ],
      "min": [
        -0.9984525442123413,
        -0.9797980189323425,
        -0.9992614388465881
      ],
      "type": "VEC3"
    },
    {
      "bufferView": 1,
      "byteOffset": 26416,
      "componentType": 5126,
      "count": 90,
      "max": [
        0.2918824553489685,
        0.4380187690258026
      ],
      "min": [
        0.0,
        0.0
      ],
      "type": "VEC2"
    },
    {
      "bufferView": 0,
      "byteOffset": 29196,
      "componentType": 5125,
      "count": 378,
      "type": "SCALAR"
    },
    {
      "bufferView": 2,
      "byteOffset": 50472,
      "componentType": 5126,
      "count": 338,
      "max": [
        1.8829703330993652,
        5.145809173583984,
        0.8824517726898193
      ],
      "min": [
        -14.914843559265137,
        4.556123733520508,
        -0.8824520111083984
      ],
      "type": "VEC3"
    },
    {
      "bufferView": 2,
      "byteOffset": 54528,
      "componentType": 5126,
      "count": 338,
      "max": [
        0.9549920558929443,
        1.0,
        1.0
      ],
      "min": [
        -1.0,
        -1.0,
        -1.0
      ],
      "type": "VEC3"
    },
    {
      "bufferView": 1,
      "byteOffset": 27136,
      "componentType": 5126,
      "count": 338,
      "max": [
        0.31917455792427063,
        0.5905749201774597
      ],
      "min": [
        0.14940887689590454,
        0.3915570080280304
      ],
      "type": "VEC2"
    },
    {
      "bufferView": 0,
      "byteOffset": 30708,
      "componentType": 5125,
      "count": 837,
      "type": "SCALAR"
    },
    {
      "bufferView": 2,
      "byteOffset": 58584,
      "componentType": 5126,
      "count": 172,
      "max": [
        4.114141941070557,
        1.9720191955566406,
        -1.1502032279968262
      ],
      "min": [
        -2.291868209838867,
        -8.776723861694336,
        -2.0688648223876953
      ],
      "type": "VEC3"
    },
    {
      "bufferView": 2,
      "byteOffset": 60648,
      "componentType": 5126,
      "count": 172,
      "max": [
        0.9963695406913757,
        0.7646733522415161,
        0.9686110615730286
      ],
      "min": [
        -0.9578830003738403,
        -0.9576699733734131,
        -0.9998445510864258
      ],
      "type": "VEC3"
    },
    {
      "bufferView": 1,
      "byteOffset": 29840,
      "componentType": 5126,
      "count": 172,
      "max": [
        0.9911400079727173,
        0.6854150891304016
      ],
      "min": [
        0.7589079141616821,
        0.23051191866397858
      ],
      "type": "VEC2"
    },
    {
      "bufferView": 0,
      "byteOffset": 34056,
      "componentType": 5125,
      "count": 735,
      "type": "SCALAR"
    }
  ],
  "asset": {
    "extras": {
      "author": "h1ggs (https://sketchfab.com/h1ggs)",
      "license": "CC-BY-4.0 (http://creativecommons.org/licenses/by/4.0/)",
      "source": "https://sketchfab.com/3d-models/sp226-handgun-10bb6758a414411c91aa0b557fa42d45",
      "title": "SP226: Handgun"
    },
    "generator": "Sketchfab-15.32.0",
    "version": "2.0"
  },
  "bufferViews": [
    {
      "buffer": 0,
      "byteLength": 36996,
      "name": "floatBufferViews",
      "target": 34963
    },
    {
      "buffer": 0,
      "byteLength": 31216,
      "byteOffset": 36996,
      "byteStride": 8,
      "name": "floatBufferViews",
      "target": 34962
    },
    {
      "buffer": 0,
      "byteLength": 62712,
      "byteOffset": 68212,
      "byteStride": 12,
      "name": "floatBufferViews",
      "target": 34962
    }
  ],
  "buffers": [
    {
      "byteLength": 130924,
      "uri": "scene.bin"
    }
  ],
  "extensionsUsed": [
    "KHR_materials_specular"
  ],
  "images": [
    {
      "uri": "textures/gunbaby_baseColor.jpeg"
    }
  ],
  "materials": [
    {
      "doubleSided": true,
      "extensions": {
        "KHR_materials_specular": {
          "specularColorFactor": [
            1.0,
            1.0,
            1.0
          ],
          "specularFactor": 0.0
        }
      },
      "name": "gunbaby",
      "pbrMetallicRoughness": {
        "baseColorTexture": {
          "index": 0
        },
        "roughnessFactor": 0.7725737830820055
      }
    }
  ],
  "meshes": [
    {
      "name": "pin_gunbaby_0",
      "primitives": [
        {
          "attributes": {
            "NORMAL": 1,
            "POSITION": 0,
            "TEXCOORD_0": 2,
            "TEXCOORD_1": 3
          },
          "indices": 4,
          "material": 0,
          "mode": 4
        }
      ]
    },
    {
      "name": "slide_gunbaby_0",
      "primitives": [
        {
          "attributes": {
            "NORMAL": 6,
            "POSITION": 5,
            "TEXCOORD_0": 7,
            "TEXCOORD_1": 8
          },
          "indices": 9,
          "material": 0,
          "mode": 4
        }
      ]
    },
    {
      "name": "grip_r_gunbaby_0",
      "primitives": [
        {
          "attributes": {
            "NORMAL": 11,
            "POSITION": 10,
            "TEXCOORD_0": 12
          },
          "indices": 13,
          "material": 0,
          "mode": 4
        }
      ]
    },
    {
      "name": "thing_gunbaby_0",
      "primitives": [
        {
          "attributes": {
            "NORMAL": 15,
            "POSITION": 14,
            "TEXCOORD_0": 16
          },
          "indices": 17,
          "material": 0,
          "mode": 4
        }
      ]
    },
    {
      "name": "griphandle_gunbaby_0",
      "primitives": [
        {
          "attributes": {
            "NORMAL": 19,
            "POSITION": 18,
            "TEXCOORD_0": 20,
            "TEXCOORD_1": 21
          },
          "indices": 22,
          "material": 0,
          "mode": 4
        }
      ]
    },
    {
      "name": "barrel_gunbaby_0",
      "primitives": [
        {
          "attributes": {
            "NORMAL": 24,
            "POSITION": 23,
            "TEXCOORD_0": 25
          },
          "indices": 26,
          "material": 0,
          "mode": 4
        }
      ]
    },
    {
      "name": "barrelend_gunbaby_0",
      "primitives": [
        {
          "attributes": {
            "NORMAL": 28,
            "POSITION": 27,
            "TEXCOORD_0": 29
          },
          "indices": 30,
          "material": 0,
          "mode": 4
        }
      ]
    },
    {
      "name": "hammer_gunbaby_0",
      "primitives": [
        {
          "attributes": {
            "NORMAL": 32,
            "POSITION": 31,
            "TEXCOORD_0": 33
          },
          "indices": 34,
          "material": 0,
          "mode": 4
        }
      ]
    },
    {
      "name": "btn2_gunbaby_0",
      "primitives": [
        {
          "attributes": {
            "NORMAL": 36,
            "POSITION": 35,
            "TEXCOORD_0": 37
          },
          "indices": 38,
          "material": 0,
          "mode": 4
        }
      ]
    },
    {
      "name": "btn3_gunbaby_0",
      "primitives": [
        {
          "attributes": {
            "NORMAL": 40,
            "POSITION": 39,
            "TEXCOORD_0": 41
          },
          "indices": 42,
          "material": 0,
          "mode": 4
        }
      ]
    },
    {
      "name": "trigger_gunbaby_0",
      "primitives": [
        {
          "attributes": {
            "NORMAL": 44,
            "POSITION": 43,
            "TEXCOORD_0": 45
          },
          "indices": 46,
          "material": 0,
          "mode": 4
        }
      ]
    },
    {
      "name": "sights_gunbaby_0",
      "primitives": [
        {
          "attributes": {
            "NORMAL": 48,
            "POSITION": 47,
            "TEXCOORD_0": 49
          },
          "indices": 50,
          "material": 0,
          "mode": 4
        }
      ]
    },
    {
      "name": "grip_l_gunbaby_0",
      "primitives": [
        {
          "attributes": {
            "NORMAL": 52,
            "POSITION": 51,
            "TEXCOORD_0": 53
          },
          "indices": 54,
          "material": 0,
          "mode": 4
        }
      ]
    }
  ],
  "nodes": [
    {
      "children": [
        1
      ],
      "matrix": [
        1.0,
        0.0,
        0.0,
        0.0,
        0.0,
        2.220446049250313e-16,
        -1.0,
        0.0,
        0.0,
        1.0,
        2.220446049250313e-16,
        0.0,
        0.0,
        0.0,
        0.0,
        1.0
      ],
      "name": "Sketchfab_model"
    },
    {
      "children": [
        2
      ],
      "matrix": [
        0.009999999776482582,
        0.0,
        0.0,
        0.0,
        0.0,
        0.0,
        0.009999999776482582,
        0.0,
        0.0,
        -0.009999999776482582,
        0.0,
        0.0,
        0.0,
        0.0,
        0.0,
        1.0
      ],
      "name": "06f2b4d458e7448aa1212c0cf2ee1eaf.fbx"
    },
    {
      "children": [
        3
      ],
      "name": "RootNode"
    },
    {
      "children": [
        4,
        6,
        8,
        10,
        12,
        14,
        18,
        20,
        22,
        24,
        26,
        28
      ],
      "name": "sp226"
    },
    {
      "children": [
        5
      ],
      "name": "pin"
    },
    {
      "mesh": 0,
      "name": "pin_gunbaby_0"
    },
    {
      "children": [
        7
      ],
      "name": "slide"
    },
    {
      "mesh": 1,
      "name": "slide_gunbaby_0"
    },
    {
      "children": [
        9
      ],
      "matrix": [
        1.0,
        0.0,
        0.0,
        0.0,
        0.0,
        1.0,
        0.0,
        0.0,
        0.0,
        0.0,
        1.0,
        0.0,
        -6.299658298492432,
        -9.440611839294434,
        -8.881784197001252e-16,
        1.0
      ],
      "name": "grip_r"
    },
    {
      "mesh": 2,
      "name": "grip_r_gunbaby_0"
    },
    {
      "children": [
        11
      ],
      "name": "thing"
    },
    {
      "mesh": 3,
      "name": "thing_gunbaby_0"
    },
    {
      "children": [
        13
      ],
      "name": "griphandle"
    },
    {
      "mesh": 4,
      "name": "griphandle_gunbaby_0"
    },
    {
      "children": [
        15,
        16
      ],
      "name": "barrel"
    },
    {
      "mesh": 5,
      "name": "barrel_gunbaby_0"
    },
    {
      "children": [
        17
      ],
      "name": "barrelend"
    },
    {
      "mesh": 6,
      "name": "barrelend_gunbaby_0"
    },
    {
      "children": [
        19
      ],
      "name": "hammer"
    },
    {
      "mesh": 7,
      "name": "hammer_gunbaby_0"
    },
    {
      "children": [
        21
      ],
      "name": "btn2"
    },
    {
      "mesh": 8,
      "name": "btn2_gunbaby_0"
    },
    {
      "children": [
        23
      ],
      "name": "btn3"
    },
    {
      "mesh": 9,
      "name": "btn3_gunbaby_0"
    },
    {
      "children": [
        25
      ],
      "name": "trigger"
    },
    {
      "mesh": 10,
      "name": "trigger_gunbaby_0"
    },
    {
      "children": [
        27
      ],
      "name": "sights"
    },
    {
      "mesh": 11,
      "name": "sights_gunbaby_0"
    },
    {
      "children": [
        29
      ],
      "name": "grip_l"
    },
    {
      "mesh": 12,
      "name": "grip_l_gunbaby_0"
    }
  ],
  "samplers": [
    {
      "magFilter": 9729,
      "minFilter": 9987,
      "wrapS": 10497,
      "wrapT": 10497
    }
  ],
  "scene": 0,
  "scenes": [
    {
      "name": "Sketchfab_Scene",
      "nodes": [
        0
      ]
    }
  ],
  "textures": [
    {
      "sampler": 0,
      "source": 0
    }
  ]
}
