{
  "accessors": [
    {
      "bufferView": 2,
      "componentType": 5126,
      "count": 4502,
      "max": [
        3.9346015453338623,
        2.429304838180542,
        2.921980619430542
      ],
      "min": [
        -3.9346022605895996,
        -2.4463846683502197,
        -2.921980619430542
      ],
      "type": "VEC3"
    },
    {
      "bufferView": 2,
      "byteOffset": 54024,
      "componentType": 5126,
      "count": 4502,
      "max": [
        0.9996415972709656,
        0.9985520839691162,
        0.9996439814567566
      ],
      "min": [
        -0.9998300671577454,
        -0.9999344348907471,
        -0.9999691843986511
      ],
      "type": "VEC3"
    },
    {
      "bufferView": 1,
      "componentType": 5126,
      "count": 4502,
      "max": [
        0.9980168342590332,
        0.991124153137207
      ],
      "min": [
        0.007056934759020805,
        0.00390625
      ],
      "type": "VEC2"
    },
    {
      "bufferView": 0,
      "componentType": 5125,
      "count": 9708,
      "type": "SCALAR"
    }
  ],
  "asset": {
    "extras": {
      "author": "senya.frozenov (https://sketchfab.com/senya.frozenov)",
      "license": "CC-BY-4.0 (http://creativecommons.org/licenses/by/4.0/)",
      "source": "https://sketchfab.com/3d-models/nieuport-11-crashed-5e1b0ea45b11487facd4a30e1abb447b",
      "title": "Nieuport 11 crashed"
    },
    "generator": "Sketchfab-12.68.0",
    "version": "2.0"
  },
  "bufferViews": [
    {
      "buffer": 0,
      "byteLength": 38832,
      "name": "floatBufferViews",
      "target": 34963
    },
    {
      "buffer": 0,
      "byteLength": 36016,
      "byteOffset": 38832,
      "byteStride": 8,
      "name": "floatBufferViews",
      "target": 34962
    },
    {
      "buffer": 0,
      "byteLength": 108048,
      "byteOffset": 74848,
      "byteStride": 12,
      "name": "floatBufferViews",
      "target": 34962
    }
  ],
  "buffers": [
    {
      "byteLength": 182896,
      "uri": "scene.bin"
    }
  ],
  "images": [
    {
      "uri": "textures/Material_3_baseColor.png"
    }
  ],
  "materials": [
    {
      "doubleSided": true,
      "name": "Material_3",
      "pbrMetallicRoughness": {
        "baseColorTexture": {
          "index": 0
        },
        "metallicFactor": 0.0,
        "roughnessFactor": 0.6
      }
    }
  ],
  "meshes": [
    {
      "name": "Object002_Material #3_0",
      "primitives": [
        {
          "attributes": {
            "NORMAL": 1,
            "POSITION": 0,
            "TEXCOORD_0": 2
          },
          "indices": 3,
          "material": 0,
          "mode": 4
        }
      ]
    }
  ],
  "nodes": [
    {
      "children": [
        1
      ],
      "matrix": [
        1.0,
        0.0,
        0.0,
        0.0,
        0.0,
        -5.053215392444312e-16,
        1.0,
        0.0,
        0.0,
        -1.0,
        -5.053215392444312e-16,
        0.0,
        0.0,
        -5.4942216873168945,
        -0.01589416153729084,
        1.0
      ],
      "name": "Sketchfab_model"
    },
    {
      "children": [
        2
      ],
      "matrix": [
        1.0,
        0.0,
        0.0,
        0.0,
        0.0,
        -1.0,
        0.0,
        0.0,
        0.0,
        0.0,
        -1.0,
        0.0,
        0.0,
        0.0,
        0.0,
        1.0
      ],
      "name": "7f38f19664034367be83d2df17eb969d.fbx"
    },
    {
      "children": [
        3
      ],
      "name": "RootNode"
    },
    {
      "children": [
        4
      ],
      "matrix": [
        0.9314910173416138,
        0.0,
        0.0,
        0.0,
        0.0,
        0.9314910173416138,
        0.0,
        0.0,
        0.0,
        0.0,
        0.9314910173416138,
        0.0,
        0.0,
        0.0,
        2.7471132278442383,
        1.0
      ],
      "name": "Object002"
    },
    {
      "mesh": 0,
      "name": "Object002_Material #3_0"
    }
  ],
  "samplers": [
    {
      "magFilter": 9729,
      "minFilter": 9987,
      "wrapS": 10497,
      "wrapT": 10497
    }
  ],
  "scene": 0,
  "scenes": [
    {
      "name": "Sketchfab_Scene",
      "nodes": [
        0
      ]
    }
  ],
  "textures": [
    {
      "sampler": 0,
      "source": 0
    }
  ]
}
