{
  "accessors": [
    {
      "bufferView": 2,
      "componentType": 5126,
      "count": 65532,
      "max": [
        10.148006439208984,
        9.379344940185547,
        3.913475275039673
      ],
      "min": [
        -12.08610725402832,
        -5.102009296417236,
        -2.965848684310913
      ],
      "type": "VEC3"
    },
    {
      "bufferView": 2,
      "byteOffset": 786384,
      "componentType": 5126,
      "count": 65532,
      "max": [
        0.9999810457229614,
        0.9997669458389282,
        0.9999949932098389
      ],
      "min": [
        -0.9997740387916565,
        -1.0,
        -0.9985326528549194
      ],
      "type": "VEC3"
    },
    {
      "bufferView": 1,
      "componentType": 5126,
      "count": 65532,
      "max": [
        0.9994850754737854,
        0.9956053495407104
      ],
      "min": [
        0.00048828125,
        0.02416195347905159
      ],
      "type": "VEC2"
    },
    {
      "bufferView": 0,
      "componentType": 5125,
      "count": 171831,
      "type": "SCALAR"
    },
    {
      "bufferView": 2,
      "byteOffset": 1572768,
      "componentType": 5126,
      "count": 65532,
      "max": [
        10.149072647094727,
        9.383298873901367,
        4.63224458694458
      ],
      "min": [
        -12.086176872253418,
        -5.101992130279541,
        -2.965930461883545
      ],
      "type": "VEC3"
    },
    {
      "bufferView": 2,
      "byteOffset": 2359152,
      "componentType": 5126,
      "count": 65532,
      "max": [
        0.9999996423721313,
        1.0,
        0.9999991059303284
      ],
      "min": [
        -0.9998995661735535,
        -0.9999002814292908,
        -1.0
      ],
      "type": "VEC3"
    },
    {
      "bufferView": 1,
      "byteOffset": 524256,
      "componentType": 5126,
      "count": 65532,
      "max": [
        0.9994279742240906,
        0.4788490831851959
      ],
      "min": [
        0.00048828125,
        0.006436665076762438
      ],
      "type": "VEC2"
    },
    {
      "bufferView": 0,
      "byteOffset": 687324,
      "componentType": 5125,
      "count": 163983,
      "type": "SCALAR"
    },
    {
      "bufferView": 2,
      "byteOffset": 3145536,
      "componentType": 5126,
      "count": 65533,
      "max": [
        10.148012161254883,
        9.382980346679688,
        5.1068902015686035
      ],
      "min": [
        -12.086356163024902,
        -5.102009296417236,
        -2.965876579284668
      ],
      "type": "VEC3"
    },
    {
      "bufferView": 2,
      "byteOffset": 3931932,
      "componentType": 5126,
      "count": 65533,
      "max": [
        1.0,
        1.0,
        0.9999970197677612
      ],
      "min": [
        -1.0,
        -1.0,
        -1.0
      ],
      "type": "VEC3"
    },
    {
      "bufferView": 1,
      "byteOffset": 1048512,
      "componentType": 5126,
      "count": 65533,
      "max": [
        0.9995036721229553,
        0.26708975434303284
      ],
      "min": [
        0.00048828125,
        0.0004891349235549569
      ],
      "type": "VEC2"
    },
    {
      "bufferView": 0,
      "byteOffset": 1343256,
      "componentType": 5125,
      "count": 166962,
      "type": "SCALAR"
    },
    {
      "bufferView": 2,
      "byteOffset": 4718328,
      "componentType": 5126,
      "count": 65533,
      "max": [
        10.149072647094727,
        9.382918357849121,
        6.649167060852051
      ],
      "min": [
        -12.086176872253418,
        -5.101992130279541,
        -2.965930461883545
      ],
      "type": "VEC3"
    },
    {
      "bufferView": 2,
      "byteOffset": 5504724,
      "componentType": 5126,
      "count": 65533,
      "max": [
        1.0,
        1.0,
        0.9999982714653015
      ],
      "min": [
        -0.9999810457229614,
        -0.9999991655349731,
        -1.0
      ],
      "type": "VEC3"
    },
    {
      "bufferView": 1,
      "byteOffset": 1572776,
      "componentType": 5126,
      "count": 65533,
      "max": [
        0.9994059205055237,
        0.7416990995407104
      ],
      "min": [
        0.00048828125,
        0.000492353574372828
      ],
      "type": "VEC2"
    },
    {
      "bufferView": 0,
      "byteOffset": 2011104,
      "componentType": 5125,
      "count": 158613,
      "type": "SCALAR"
    },
    {
      "bufferView": 2,
      "byteOffset": 6291120,
      "componentType": 5126,
      "count": 65532,
      "max": [
        10.148006439208984,
        9.383081436157227,
        6.649167060852051
      ],
      "min": [
        -12.086176872253418,
        -5.102009296417236,
        -2.965930461883545
      ],
      "type": "VEC3"
    },
    {
      "bufferView": 2,
      "byteOffset": 7077504,
      "componentType": 5126,
      "count": 65532,
      "max": [
        0.9999823570251465,
        1.0,
        0.9999889731407166
      ],
      "min": [
        -0.9999156594276428,
        -0.9999464750289917,
        -1.0
      ],
      "type": "VEC3"
    },
    {
      "bufferView": 1,
      "byteOffset": 2097040,
      "componentType": 5126,
      "count": 65532,
      "max": [
        0.999508261680603,
        0.7436522245407104
      ],
      "min": [
        0.00048828125,
        0.035837430506944656
      ],
      "type": "VEC2"
    },
    {
      "bufferView": 0,
      "byteOffset": 2645556,
      "componentType": 5125,
      "count": 154245,
      "type": "SCALAR"
    },
    {
      "bufferView": 2,
      "byteOffset": 7863888,
      "componentType": 5126,
      "count": 40489,
      "max": [
        5.2129902839660645,
        5.326909065246582,
        4.691644668579102
      ],
      "min": [
        -12.08610725402832,
        -5.102009296417236,
        -2.965790271759033
      ],
      "type": "VEC3"
    },
    {
      "bufferView": 2,
      "byteOffset": 8349756,
      "componentType": 5126,
      "count": 40489,
      "max": [
        0.9999909400939941,
        0.9999374151229858,
        0.999997615814209
      ],
      "min": [
        -0.9996559619903564,
        -1.0,
        -0.9906857013702393
      ],
      "type": "VEC3"
    },
    {
      "bufferView": 1,
      "byteOffset": 2621296,
      "componentType": 5126,
      "count": 40489,
      "max": [
        0.9994932413101196,
        0.9975584745407104
      ],
      "min": [
        0.00048828125,
        0.03573288396000862
      ],
      "type": "VEC2"
    },
    {
      "bufferView": 0,
      "byteOffset": 3262536,
      "componentType": 5125,
      "count": 84366,
      "type": "SCALAR"
    }
  ],
  "asset": {
    "extras": {
      "author": "DAC Photoscan (https://sketchfab.com/DACPhotoscans)",
      "license": "CC-BY-4.0 (http://creativecommons.org/licenses/by/4.0/)",
      "source": "https://sketchfab.com/3d-models/tree-stump-busteni-romania-5bec222610fe4a8da41a87321c0da281",
      "title": "Tree stump Busteni Romania"
    },
    "generator": "Sketchfab-14.56.0",
    "version": "2.0"
  },
  "bufferViews": [
    {
      "buffer": 0,
      "byteLength": 3600000,
      "name": "floatBufferViews",
      "target": 34963
    },
    {
      "buffer": 0,
      "byteLength": 2945208,
      "byteOffset": 3600000,
      "byteStride": 8,
      "name": "floatBufferViews",
      "target": 34962
    },
    {
      "buffer": 0,
      "byteLength": 8835624,
      "byteOffset": 6545208,
      "byteStride": 12,
      "name": "floatBufferViews",
      "target": 34962
    }
  ],
  "buffers": [
    {
      "byteLength": 15380832,
      "uri": "scene.bin"
    }
  ],
  "extensionsUsed": [
    "KHR_materials_unlit"
  ],
  "images": [
    {
      "uri": "textures/tex_u1_v1_baseColor.jpeg"
    }
  ],
  "materials": [
    {
      "doubleSided": true,
      "extensions": {
        "KHR_materials_unlit": {}
      },
      "name": "tex_u1_v1",
      "pbrMetallicRoughness": {
        "baseColorTexture": {
          "index": 0
        },
        "metallicFactor": 0.0
      }
    }
  ],
  "meshes": [
    {
      "name": "Object_0",
      "primitives": [
        {
          "attributes": {
            "NORMAL": 1,
            "POSITION": 0,
            "TEXCOORD_0": 2
          },
          "indices": 3,
          "material": 0,
          "mode": 4
        }
      ]
    },
    {
      "name": "Object_1",
      "primitives": [
        {
          "attributes": {
            "NORMAL": 5,
            "POSITION": 4,
            "TEXCOORD_0": 6
          },
          "indices": 7,
          "material": 0,
          "mode": 4
        }
      ]
    },
    {
      "name": "Object_2",
      "primitives": [
        {
          "attributes": {
            "NORMAL": 9,
            "POSITION": 8,
            "TEXCOORD_0": 10
          },
          "indices": 11,
          "material": 0,
          "mode": 4
        }
      ]
    },
    {
      "name": "Object_3",
      "primitives": [
        {
          "attributes": {
            "NORMAL": 13,
            "POSITION": 12,
            "TEXCOORD_0": 14
          },
          "indices": 15,
          "material": 0,
          "mode": 4
        }
      ]
    },
    {
      "name": "Object_4",
      "primitives": [
        {
          "attributes": {
            "NORMAL": 17,
            "POSITION": 16,
            "TEXCOORD_0": 18
          },
          "indices": 19,
          "material": 0,
          "mode": 4
        }
      ]
    },
    {
      "name": "Object_5",
      "primitives": [
        {
          "attributes": {
            "NORMAL": 21,
            "POSITION": 20,
            "TEXCOORD_0": 22
          },
          "indices": 23,
          "material": 0,
          "mode": 4
        }
      ]
    }
  ],
  "nodes": [
    {
      "children": [
        1
      ],
      "matrix": [
        1.0,
        0.0,
        0.0,
        0.0,
        0.0,
        2.220446049250313e-16,
        -1.0,
        0.0,
        0.0,
        1.0,
        2.220446049250313e-16,
        0.0,
        0.0,
        0.0,
        0.0,
        1.0
      ],
      "name": "Sketchfab_model"
    },
    {
      "children": [
        2,
        3,
        4,
        5,
        6,
        7
      ],
      "name": "model.obj.cleaner.materialmerger.gles"
    },
    {
      "mesh": 0,
      "name": "Object_2"
    },
    {
      "mesh": 1,
      "name": "Object_3"
    },
    {
      "mesh": 2,
      "name": "Object_4"
    },
    {
      "mesh": 3,
      "name": "Object_5"
    },
    {
      "mesh": 4,
      "name": "Object_6"
    },
    {
      "mesh": 5,
      "name": "Object_7"
    }
  ],
  "samplers": [
    {
      "magFilter": 9729,
      "minFilter": 9987,
      "wrapS": 10497,
      "wrapT": 10497
    }
  ],
  "scene": 0,
  "scenes": [
    {
      "name": "Sketchfab_Scene",
      "nodes": [
        0
      ]
    }
  ],
  "textures": [
    {
      "sampler": 0,
      "source": 0
    }
  ]
}
